<?xml version="1.0" encoding="UTF-8"?><svg id="Layer_1" xmlns="http://www.w3.org/2000/svg" viewBox="0 0 363.01 363.01" width="363.01" height="363.01"><defs><style>.cls-1{fill:#99d3ea;}</style></defs><path class="cls-1" d="M363.01,181.5C363.01,81.26,281.74,0,181.5,0S0,81.26,0,181.5c0,46.03,17.14,88.04,45.38,120.04v-142.73l11.34-22.69,11.34,22.69,22.69-45.38,22.69,45.38,11.34-22.69,11.34,22.69v45.38h90.75v-45.38l11.34-22.69,11.34,22.69,22.69-45.38,22.69,45.38,11.34-22.69,11.34,22.69v142.73c28.24-31.99,45.38-74.01,45.38-120.04Z"/><rect class="cls-1" x="136.13" y="226.88" width="90.75" height="68.06"/><path class="cls-1" d="M136.13,357.29c14.5,3.73,29.71,5.72,45.38,5.72s30.87-1.99,45.38-5.72v-39.66h-90.75v39.66Z"/><rect class="cls-1" x="68.06" y="181.5" width="14.18" height="22.69"/><rect class="cls-1" x="99.26" y="181.5" width="14.18" height="22.69"/><rect class="cls-1" x="68.06" y="226.88" width="14.18" height="22.69"/><rect class="cls-1" x="99.26" y="226.88" width="14.18" height="22.69"/><rect class="cls-1" x="68.06" y="272.25" width="14.18" height="22.69"/><rect class="cls-1" x="99.26" y="272.25" width="14.18" height="22.69"/><rect class="cls-1" x="249.57" y="181.5" width="14.18" height="22.69"/><rect class="cls-1" x="280.76" y="181.5" width="14.18" height="22.69"/><rect class="cls-1" x="249.57" y="226.88" width="14.18" height="22.69"/><rect class="cls-1" x="280.76" y="226.88" width="14.18" height="22.69"/><rect class="cls-1" x="249.57" y="272.25" width="14.18" height="22.69"/><rect class="cls-1" x="280.76" y="272.25" width="14.18" height="22.69"/></svg>