<?xml version="1.0" encoding="UTF-8"?><svg id="Layer_1" xmlns="http://www.w3.org/2000/svg" viewBox="0 0 2096.24 363.01" width="2096.24" height="363.01"><defs><style>.cls-1{opacity:.5;}.cls-1,.cls-2{fill:#1c312f;}.cls-3{fill:#99d3ea;}</style></defs><path class="cls-3" d="M363.01,181.5C363.01,81.26,281.74,0,181.5,0S0,81.26,0,181.5c0,46.03,17.14,88.04,45.38,120.04v-142.73l11.34-22.69,11.34,22.69,22.69-45.38,22.69,45.38,11.34-22.69,11.34,22.69v45.38h90.75v-45.38l11.34-22.69,11.34,22.69,22.69-45.38,22.69,45.38,11.34-22.69,11.34,22.69v142.73c28.24-31.99,45.38-74.01,45.38-120.04Z"/><rect class="cls-3" x="136.13" y="226.88" width="90.75" height="68.06"/><path class="cls-3" d="M136.13,357.29c14.5,3.73,29.71,5.72,45.38,5.72s30.87-1.99,45.38-5.72v-39.66h-90.75v39.66Z"/><rect class="cls-3" x="68.06" y="181.5" width="14.18" height="22.69"/><rect class="cls-3" x="99.26" y="181.5" width="14.18" height="22.69"/><rect class="cls-3" x="68.06" y="226.88" width="14.18" height="22.69"/><rect class="cls-3" x="99.26" y="226.88" width="14.18" height="22.69"/><rect class="cls-3" x="68.06" y="272.25" width="14.18" height="22.69"/><rect class="cls-3" x="99.26" y="272.25" width="14.18" height="22.69"/><rect class="cls-3" x="249.57" y="181.5" width="14.18" height="22.69"/><rect class="cls-3" x="280.76" y="181.5" width="14.18" height="22.69"/><rect class="cls-3" x="249.57" y="226.88" width="14.18" height="22.69"/><rect class="cls-3" x="280.76" y="226.88" width="14.18" height="22.69"/><rect class="cls-3" x="249.57" y="272.25" width="14.18" height="22.69"/><rect class="cls-3" x="280.76" y="272.25" width="14.18" height="22.69"/><path class="cls-2" d="M458.18,129.15h-49.8v-30.72h136.13v30.72h-49.8v135.43h-36.53v-135.43Z"/><path class="cls-2" d="M557.17,98.43h33.04v62.6h.7c8.38-13.73,22.8-20.01,35.14-20.01,35.14,0,43.98,19.78,43.98,49.56v74h-33.04v-67.95c0-19.78-5.58-29.55-21.18-29.55-17.92,0-25.6,10.01-25.6,34.44v63.06h-33.04V98.43Z"/><path class="cls-2" d="M691.41,181.27c1.86-30.72,29.55-40.26,56.55-40.26,23.97,0,52.82,5.35,52.82,34.21v62.6c0,10.94,1.16,21.87,4.19,26.76h-33.51c-1.16-3.72-2.09-7.68-2.33-11.63-10.47,10.94-25.6,14.89-40.49,14.89-23.04,0-40.95-11.4-40.95-36.07.47-54.68,81.44-25.36,80.05-52.36,0-13.96-9.77-16.29-21.41-16.29-12.8,0-20.71,5.12-21.87,18.15h-33.04ZM767.73,205.7c-5.58,4.89-17.22,5.12-27.46,6.98-10.24,1.86-19.55,5.58-19.55,17.69s9.54,15.36,20.24,15.36c25.83,0,26.76-20.24,26.76-27.69v-12.33Z"/><path class="cls-2" d="M825.2,144.27h31.18v16.29h.47c8.61-12.33,20.94-19.55,36.77-19.55s28.62,5.35,35.14,20.01c7.21-10.47,19.55-20.01,36.3-20.01,25.6,0,43.98,11.87,43.98,43.05v80.51h-33.04v-68.18c0-16.06-1.4-29.32-20.24-29.32s-22.11,15.59-22.11,30.48v67.02h-33.04v-67.48c0-13.96.93-30.02-20.01-30.02-6.52,0-22.34,4.19-22.34,27.69v69.81h-33.04v-120.3Z"/><path class="cls-2" d="M1060.22,212.45c.93,21.18,10.94,30.48,29.55,30.48,13.26,0,23.97-8.14,26.06-15.59h29.09c-9.31,28.62-29.09,40.49-56.31,40.49-37.93,0-61.43-26.06-61.43-63.29s24.9-63.53,61.43-63.53c40.95,0,60.97,34.44,58.41,71.44h-86.8ZM1113.97,191.51c-3.02-16.75-10.24-25.6-26.29-25.6-21.41,0-26.76,16.29-27.46,25.6h53.75Z"/><path class="cls-2" d="M1189.04,225.48c0,14.19,12.57,20.24,25.36,20.24,9.31,0,21.64-3.72,21.64-15.36,0-10.01-13.96-13.73-37.46-18.62-19.31-4.42-38.16-10.7-38.16-32.11,0-30.72,26.53-38.63,52.36-38.63s50.5,8.84,53.05,38.39h-31.41c-.93-12.8-10.7-16.29-22.57-16.29-7.45,0-18.38,1.16-18.38,11.17,0,11.87,18.85,13.5,37.46,17.92,19.31,4.42,38.16,11.4,38.16,33.74,0,31.65-27.69,41.89-54.92,41.89s-55.38-10.47-56.55-42.35h31.41Z"/><path class="cls-1" d="M1381.52,248.06c-13.26,13.03-27.92,19.78-46.77,19.78-30.02,0-53.75-18.38-53.75-49.8,0-23.27,17.69-39.09,37.23-48.17-9.08-10.94-15.82-20.71-15.82-35.37,0-23.04,20.94-37.93,43.28-37.93,25.13,0,45.61,13.73,45.61,39.79,0,19.55-12.8,32.34-29.55,41.42l21.41,26.29c3.49-6.28,5.12-13.03,6.05-19.78h28.62c-1.63,14.89-6.75,29.09-16.06,40.95l33.74,39.33h-40.49l-13.5-16.52ZM1335.68,191.28c-11.87,4.89-23.27,13.96-23.27,27.46,0,12.1,11.4,21.87,23.73,21.87s20.24-6.05,27.92-14.66l-28.39-34.67ZM1347.31,118.68c-8.14,0-14.89,6.05-14.89,14.66,0,10.47,6.75,17.22,13.03,24.9,9.31-5.82,16.99-11.63,16.99-23.73,0-8.61-6.98-15.82-15.13-15.82Z"/><path class="cls-2" d="M1466.66,129.15h-49.8v-30.72h136.13v30.72h-49.8v135.43h-36.53v-135.43Z"/><path class="cls-2" d="M1597.2,141.02c37.93,0,62.36,25.13,62.36,63.53s-24.43,63.29-62.36,63.29-62.13-25.13-62.13-63.29,24.43-63.53,62.13-63.53ZM1597.2,242.94c22.57,0,29.32-19.08,29.32-38.4s-6.75-38.63-29.32-38.63-29.09,19.31-29.09,38.63,6.75,38.4,29.09,38.4Z"/><path class="cls-2" d="M1679.06,98.43h33.04v89.12l41.65-43.28h39.09l-45.38,44.21,50.5,76.09h-40.02l-33.04-53.75-12.8,12.33v41.42h-33.04V98.43Z"/><path class="cls-2" d="M1872.42,279.7c-7.21,19.31-18.85,27.23-41.42,27.23-6.75,0-13.5-.46-20.24-1.16v-27.23c6.28.7,12.8,1.4,19.31,1.16,8.61-.93,12.8-7.68,12.8-15.12,0-2.56-.47-5.12-1.4-7.45l-42.35-112.86h35.37l27.23,82.37h.47l26.29-82.37h34.21l-50.26,135.43Z"/><path class="cls-2" d="M1984.11,141.02c37.93,0,62.36,25.13,62.36,63.53s-24.43,63.29-62.36,63.29-62.13-25.13-62.13-63.29,24.43-63.53,62.13-63.53ZM1984.11,242.94c22.57,0,29.32-19.08,29.32-38.4s-6.75-38.63-29.32-38.63-29.09,19.31-29.09,38.63,6.75,38.4,29.09,38.4Z"/><path class="cls-2" d="M2083.77,242.83c6.78,0,12.47,5.35,12.47,12.37s-5.69,12.5-12.47,12.5-12.54-5.35-12.54-12.5,5.72-12.37,12.54-12.37ZM2083.77,265.87c5.75,0,10.21-4.59,10.21-10.67s-4.46-10.54-10.21-10.54-10.27,4.59-10.27,10.54,4.42,10.67,10.27,10.67ZM2078.92,247.98h5.62c3.46,0,5.09,1.36,5.09,4.16,0,2.63-1.66,3.72-3.82,3.96l4.16,6.42h-2.43l-3.96-6.25h-2.39v6.25h-2.26v-14.53ZM2081.18,254.43h2.36c2,0,3.82-.1,3.82-2.39,0-1.93-1.66-2.23-3.19-2.23h-2.99v4.62Z"/></svg>