<?xml version="1.0" encoding="UTF-8"?><svg id="Layer_1" xmlns="http://www.w3.org/2000/svg" viewBox="0 0 1000 363.01" width="1000" height="363.01"><defs><style>.cls-1{opacity:.5;}.cls-1,.cls-2{fill:#1c312f;}.cls-3{fill:#99d3ea;}</style></defs><path class="cls-3" d="M363.01,181.5C363.01,81.26,281.74,0,181.5,0S0,81.26,0,181.5c0,46.03,17.14,88.04,45.38,120.04v-142.73l11.34-22.69,11.34,22.69,22.69-45.38,22.69,45.38,11.34-22.69,11.34,22.69v45.38h90.75v-45.38l11.34-22.69,11.34,22.69,22.69-45.38,22.69,45.38,11.34-22.69,11.34,22.69v142.73c28.24-31.99,45.38-74.01,45.38-120.04Z"/><rect class="cls-3" x="136.13" y="226.88" width="90.75" height="68.06"/><path class="cls-3" d="M136.13,357.29c14.5,3.73,29.71,5.72,45.38,5.72s30.87-1.99,45.38-5.72v-39.66h-90.75v39.66Z"/><rect class="cls-3" x="68.06" y="181.5" width="14.18" height="22.69"/><rect class="cls-3" x="99.26" y="181.5" width="14.18" height="22.69"/><rect class="cls-3" x="68.06" y="226.88" width="14.18" height="22.69"/><rect class="cls-3" x="99.26" y="226.88" width="14.18" height="22.69"/><rect class="cls-3" x="68.06" y="272.25" width="14.18" height="22.69"/><rect class="cls-3" x="99.26" y="272.25" width="14.18" height="22.69"/><rect class="cls-3" x="249.57" y="181.5" width="14.18" height="22.69"/><rect class="cls-3" x="280.76" y="181.5" width="14.18" height="22.69"/><rect class="cls-3" x="249.57" y="226.88" width="14.18" height="22.69"/><rect class="cls-3" x="280.76" y="226.88" width="14.18" height="22.69"/><rect class="cls-3" x="249.57" y="272.25" width="14.18" height="22.69"/><rect class="cls-3" x="280.76" y="272.25" width="14.18" height="22.69"/><path class="cls-2" d="M426.45,80.98h-33.2v-20.48h90.74v20.48h-33.2v90.28h-24.35v-90.28Z"/><path class="cls-2" d="M492.44,60.5h22.03v41.73h.46c5.58-9.15,15.2-13.34,23.42-13.34,23.42,0,29.32,13.19,29.32,33.04v49.33h-22.03v-45.3c0-13.19-3.72-19.7-14.12-19.7-11.94,0-17.06,6.67-17.06,22.96v42.04h-22.03V60.5Z"/><path class="cls-2" d="M581.92,115.72c1.24-20.48,19.7-26.84,37.69-26.84,15.98,0,35.21,3.57,35.21,22.8v41.73c0,7.29.78,14.58,2.79,17.84h-22.34c-.78-2.48-1.4-5.12-1.55-7.76-6.98,7.29-17.06,9.93-26.99,9.93-15.36,0-27.3-7.6-27.3-24.04.31-36.45,54.29-16.91,53.36-34.9,0-9.31-6.51-10.86-14.27-10.86-8.53,0-13.8,3.41-14.58,12.1h-22.03ZM632.8,132.01c-3.72,3.26-11.48,3.41-18.3,4.65-6.82,1.24-13.03,3.72-13.03,11.79s6.36,10.24,13.49,10.24c17.22,0,17.84-13.49,17.84-18.46v-8.22Z"/><path class="cls-2" d="M671.11,91.06h20.79v10.86h.31c5.74-8.22,13.96-13.03,24.51-13.03s19.08,3.57,23.42,13.34c4.81-6.98,13.03-13.34,24.2-13.34,17.06,0,29.32,7.91,29.32,28.7v53.67h-22.03v-45.45c0-10.7-.93-19.55-13.49-19.55s-14.74,10.39-14.74,20.32v44.67h-22.03v-44.98c0-9.31.62-20.01-13.34-20.01-4.34,0-14.89,2.79-14.89,18.46v46.54h-22.03v-80.2Z"/><path class="cls-2" d="M827.77,136.51c.62,14.12,7.29,20.32,19.7,20.32,8.84,0,15.98-5.43,17.37-10.39h19.39c-6.2,19.08-19.39,26.99-37.54,26.99-25.29,0-40.95-17.37-40.95-42.19s16.6-42.35,40.95-42.35c27.3,0,40.64,22.96,38.93,47.62h-57.86ZM863.6,122.55c-2.02-11.17-6.82-17.06-17.53-17.06-14.27,0-17.84,10.86-18.3,17.06h35.83Z"/><path class="cls-2" d="M913.64,145.2c0,9.46,8.38,13.49,16.91,13.49,6.21,0,14.43-2.48,14.43-10.24,0-6.67-9.31-9.15-24.98-12.41-12.87-2.95-25.44-7.13-25.44-21.4,0-20.48,17.68-25.75,34.9-25.75s33.66,5.9,35.37,25.59h-20.94c-.62-8.53-7.13-10.86-15.05-10.86-4.96,0-12.25.78-12.25,7.45,0,7.91,12.57,9,24.97,11.95,12.88,2.95,25.44,7.6,25.44,22.49,0,21.1-18.46,27.92-36.61,27.92s-36.92-6.98-37.69-28.23h20.94Z"/><path class="cls-1" d="M490.98,291.49c-8.84,8.69-18.61,13.19-31.18,13.19-20.01,0-35.83-12.25-35.83-33.2,0-15.51,11.79-26.06,24.82-32.11-6.05-7.29-10.55-13.81-10.55-23.58,0-15.36,13.96-25.28,28.85-25.28,16.75,0,30.4,9.15,30.4,26.53,0,13.03-8.53,21.56-19.7,27.61l14.27,17.53c2.33-4.19,3.41-8.69,4.03-13.19h19.08c-1.09,9.93-4.5,19.39-10.7,27.3l22.49,26.22h-26.99l-9-11.01ZM460.42,253.64c-7.91,3.26-15.51,9.31-15.51,18.3,0,8.07,7.6,14.58,15.82,14.58s13.5-4.03,18.62-9.77l-18.92-23.11ZM468.18,205.25c-5.43,0-9.93,4.03-9.93,9.77,0,6.98,4.5,11.48,8.69,16.6,6.2-3.88,11.32-7.76,11.32-15.82,0-5.74-4.65-10.55-10.08-10.55Z"/><path class="cls-2" d="M580.32,212.23h-33.2v-20.48h90.74v20.48h-33.2v90.28h-24.35v-90.28Z"/><path class="cls-2" d="M667.34,220.14c25.29,0,41.57,16.75,41.57,42.35s-16.29,42.19-41.57,42.19-41.42-16.75-41.42-42.19,16.29-42.35,41.42-42.35ZM667.34,288.08c15.05,0,19.55-12.72,19.55-25.59s-4.5-25.75-19.55-25.75-19.39,12.87-19.39,25.75,4.5,25.59,19.39,25.59Z"/><path class="cls-2" d="M721.91,191.75h22.03v59.41l27.77-28.85h26.06l-30.25,29.47,33.66,50.72h-26.68l-22.03-35.83-8.53,8.22v27.61h-22.03v-110.75Z"/><path class="cls-2" d="M850.8,312.59c-4.81,12.88-12.56,18.15-27.61,18.15-4.5,0-9-.31-13.5-.78v-18.15c4.19.47,8.53.93,12.88.78,5.74-.62,8.53-5.12,8.53-10.08,0-1.71-.31-3.41-.93-4.96l-28.23-75.23h23.58l18.15,54.91h.31l17.53-54.91h22.8l-33.5,90.28Z"/><path class="cls-2" d="M925.26,220.14c25.29,0,41.57,16.75,41.57,42.35s-16.29,42.19-41.57,42.19-41.42-16.75-41.42-42.19,16.29-42.35,41.42-42.35ZM925.26,288.08c15.05,0,19.55-12.72,19.55-25.59s-4.5-25.75-19.55-25.75-19.39,12.87-19.39,25.75,4.5,25.59,19.39,25.59Z"/><path class="cls-2" d="M991.69,288.01c4.52,0,8.31,3.57,8.31,8.24s-3.79,8.33-8.31,8.33-8.35-3.57-8.35-8.33,3.81-8.24,8.35-8.24ZM991.69,303.37c3.83,0,6.8-3.06,6.8-7.11s-2.97-7.02-6.8-7.02-6.85,3.06-6.85,7.02,2.95,7.11,6.85,7.11ZM988.45,291.45h3.75c2.3,0,3.39.91,3.39,2.77,0,1.75-1.11,2.48-2.55,2.64l2.77,4.28h-1.62l-2.64-4.17h-1.59v4.17h-1.51v-9.68ZM989.96,295.75h1.57c1.33,0,2.55-.07,2.55-1.6,0-1.29-1.11-1.48-2.13-1.48h-1.99v3.08Z"/></svg>