<?xml version="1.0" encoding="UTF-8"?><svg id="Layer_1" xmlns="http://www.w3.org/2000/svg" viewBox="0 0 2886.42 363.01" width="2886.42" height="363.01"><defs><style>.cls-1{fill:#99d3ea;}.cls-2{fill:#1c312f;}</style></defs><path class="cls-2" d="M86.71,53.48H0V0h237.01v53.48h-86.7v235.79h-63.61V53.48Z"/><path class="cls-2" d="M259.04,0h57.54v108.99h1.21c14.59-23.91,39.71-34.85,61.18-34.85,61.18,0,76.57,34.44,76.57,86.3v128.84h-57.53v-118.3c0-34.44-9.72-51.45-36.87-51.45-31.2,0-44.56,17.42-44.56,59.96v109.79h-57.54V0Z"/><path class="cls-2" d="M492.75,144.23c3.24-53.48,51.46-70.09,98.46-70.09,41.73,0,91.96,9.32,91.96,59.56v108.98c0,19.04,2.03,38.08,7.3,46.59h-58.34c-2.03-6.48-3.65-13.37-4.05-20.26-18.23,19.04-44.57,25.93-70.5,25.93-40.11,0-71.3-19.86-71.3-62.8.81-95.21,141.8-44.16,139.37-91.16,0-24.31-17.02-28.36-37.28-28.36-22.28,0-36.05,8.91-38.08,31.6h-57.54ZM625.64,186.77c-9.72,8.51-29.98,8.91-47.81,12.15-17.83,3.24-34.03,9.73-34.03,30.79s16.61,26.74,35.25,26.74c44.97,0,46.59-35.25,46.59-48.21v-21.47Z"/><path class="cls-2" d="M725.69,79.81h54.29v28.36h.81c14.99-21.47,36.46-34.03,64.01-34.03s49.83,9.32,61.17,34.85c12.56-18.23,34.03-34.85,63.21-34.85,44.56,0,76.57,20.66,76.57,74.95v140.18h-57.53v-118.71c0-27.96-2.43-51.05-35.25-51.05s-38.48,27.15-38.48,53.08v116.68h-57.53v-117.49c0-24.31,1.62-52.27-34.84-52.27-11.35,0-38.89,7.3-38.89,48.21v121.54h-57.54V79.81Z"/><path class="cls-2" d="M1134.87,198.52c1.63,36.87,19.04,53.08,51.46,53.08,23.09,0,41.73-14.18,45.37-27.15h50.64c-16.2,49.83-50.64,70.5-98.04,70.5-66.04,0-106.96-45.38-106.96-110.2s43.35-110.61,106.96-110.61c71.3,0,106.14,59.96,101.69,124.38h-151.12ZM1228.46,162.06c-5.26-29.17-17.83-44.56-45.78-44.56-37.27,0-46.59,28.36-47.81,44.56h93.59Z"/><path class="cls-2" d="M1359.14,221.21c0,24.71,21.88,35.25,44.16,35.25,16.21,0,37.68-6.48,37.68-26.74,0-17.42-24.31-23.9-65.23-32.41-33.62-7.7-66.44-18.63-66.44-55.91,0-53.48,46.19-67.26,91.16-67.26s87.92,15.4,92.37,66.85h-54.69c-1.62-22.28-18.63-28.36-39.3-28.36-12.96,0-32.01,2.03-32.01,19.45,0,20.66,32.82,23.5,65.23,31.2,33.62,7.7,66.44,19.85,66.44,58.74,0,55.1-48.21,72.93-95.61,72.93s-96.42-18.23-98.45-73.74h54.69Z"/><path class="cls-2" d="M1805.57,53.48h-86.71V0h237.01v53.48h-86.7v235.79h-63.61V53.48Z"/><path class="cls-2" d="M2041.42,74.14c66.04,0,108.58,43.76,108.58,110.61s-42.54,110.2-108.58,110.2-108.18-43.76-108.18-110.2,42.55-110.61,108.18-110.61ZM2041.42,251.6c39.29,0,51.05-33.22,51.05-66.85s-11.76-67.25-51.05-67.25-50.64,33.62-50.64,67.25,11.75,66.85,50.64,66.85Z"/><path class="cls-2" d="M2185.16,0h57.53v155.17l72.53-75.36h68.06l-79,76.98,87.91,132.48h-69.68l-57.53-93.59-22.29,21.47v72.11h-57.53V0Z"/><path class="cls-2" d="M2523.03,315.6c-12.56,33.63-32.82,47.4-72.12,47.4-11.75,0-23.49-.81-35.25-2.03v-47.4c10.94,1.22,22.29,2.43,33.63,2.03,14.99-1.62,22.28-13.37,22.28-26.33,0-4.46-.81-8.91-2.43-12.96l-73.74-196.49h61.58l47.4,143.42h.82l45.78-143.42h59.55l-87.51,235.79Z"/><path class="cls-2" d="M2719.55,74.14c66.04,0,108.58,43.76,108.58,110.61s-42.54,110.2-108.58,110.2-108.17-43.76-108.17-110.2,42.54-110.61,108.17-110.61ZM2719.55,251.6c39.3,0,51.05-33.22,51.05-66.85s-11.75-67.25-51.05-67.25-50.64,33.62-50.64,67.25,11.75,66.85,50.64,66.85Z"/><path class="cls-2" d="M2841.74,273.06c0-13.66,10.76-21.53,22.34-21.53s22.35,7.87,22.35,21.53-10.83,21.53-22.35,21.53-22.34-7.87-22.34-21.53ZM2879.19,273.06c0-9.43-6.95-16.03-15.11-16.03s-15.1,6.6-15.1,16.03,6.77,16.03,15.1,16.03,15.11-6.6,15.11-16.03ZM2860.95,284.69h-5.67v-23.32h8.74c6.13,0,9.9,1.57,9.9,7.12,0,4.34-2.66,5.96-6.66,6.13l5.96,10.07h-5.5l-5.33-9.72h-1.44v9.72ZM2865.06,270.86c2.03,0,3.19-.47,3.19-2.95,0-2.26-2.67-2.43-4.35-2.43h-2.95v5.39h4.1Z"/><path class="cls-1" d="M1742.61,184.37c0-60.88-49.35-110.23-110.23-110.23s-110.23,49.35-110.23,110.23c0,27.95,10.41,53.47,27.56,72.9v-86.68l6.89-13.78,6.89,13.78,13.78-27.56,13.78,27.56,6.89-13.78,6.89,13.78v27.56h55.11v-27.56l6.89-13.78,6.89,13.78,13.78-27.56,13.78,27.56,6.89-13.78,6.89,13.78v86.68c17.15-19.43,27.56-44.95,27.56-72.9Z"/><rect class="cls-1" x="1604.83" y="211.92" width="55.11" height="41.34"/><path class="cls-1" d="M1604.83,291.12c8.81,2.27,18.04,3.47,27.56,3.47s18.75-1.21,27.56-3.47v-24.08h-55.11v24.08Z"/><rect class="cls-1" x="1563.5" y="184.37" width="8.61" height="13.78"/><rect class="cls-1" x="1582.44" y="184.37" width="8.61" height="13.78"/><rect class="cls-1" x="1563.5" y="211.92" width="8.61" height="13.78"/><rect class="cls-1" x="1582.44" y="211.92" width="8.61" height="13.78"/><rect class="cls-1" x="1563.5" y="239.48" width="8.61" height="13.78"/><rect class="cls-1" x="1582.44" y="239.48" width="8.61" height="13.78"/><rect class="cls-1" x="1673.72" y="184.37" width="8.61" height="13.78"/><rect class="cls-1" x="1692.67" y="184.37" width="8.61" height="13.78"/><rect class="cls-1" x="1673.72" y="211.92" width="8.61" height="13.78"/><rect class="cls-1" x="1692.67" y="211.92" width="8.61" height="13.78"/><rect class="cls-1" x="1673.72" y="239.48" width="8.61" height="13.78"/><rect class="cls-1" x="1692.67" y="239.48" width="8.61" height="13.78"/></svg>